<svg id="Calque_1" xmlns="http://www.w3.org/2000/svg" version="1.1" viewBox="46 9 204 82">
  <defs>
    <style>
      .st0 {
        fill: #ed6f26;
      }

      .st1 {
        fill: #1166b0;
      }
    </style>
  </defs>
  <polygon class="st0" points="66.15 54.23 62.98 73.99 50.63 73.97 55.2 51.19 57.23 41.1 58.88 32.82 70.54 32.79 72.74 40.28 75.18 48.78 76.11 51.83 79.27 47 88.54 32.47 100.92 32.44 97.33 52.89 93.77 73.97 81.14 73.98 83.62 61.75 85.33 53.97 76.82 67.84 69.28 67.85 66.15 54.23"/>
  <path class="st0" d="M203.29,81.69c-3.76,3.39-9.16,4.33-14.06,3.35-3.15-.63-6.01-2.1-8.14-4.43l1.99-1.87,3.83-3.7c1.62,1.5,3.62,2.11,5.81,2.08,2.3-.03,4.43-1.14,5.17-3.51-2.62.92-5.33,1.3-8.06.79-4.65-.87-7.09-3.82-6.89-8.54l1.42-8.23,2.55-14.39h10.95s-3.8,21.13-3.8,21.13c-.12.83.21,1.59,1.06,1.88,1.24.42,3.1.2,3.92-.91l.78-5.06,3.02-17.04h11.05s-2.41,13.64-2.41,13.64l-1.46,8.08c-.55,3.04-1.13,5.95-2.05,8.9-.93,2.97-2.37,5.73-4.69,7.82h0Z"/>
  <path class="st0" d="M142.93,51.88c-.92-.1-1.84.05-2.69.41l-3.06,16.25-1.02,5.44h-11.07s1.38-7.39,1.38-7.39l4.09-21.3,4.28-1.43c3.48-.97,7.01-1.46,10.62-1.18,2.22.17,4.24.72,6.16,1.79,3.81,2.11,4.67,6.03,3.92,10.2l-3.55,19.32-11.21-.02,3.82-20.25c-.08-1.01-.67-1.74-1.67-1.84h0Z"/>
  <path class="st0" d="M114.04,63.25l1.78-9.56c-.02-1.01-.66-1.73-1.64-1.87-1.5-.21-2.93.5-3.53,1.89l-1.89,9.81c-.19,1,.14,1.93,1.19,2.26,1.91.6,3.72-.54,4.09-2.54h0ZM118.53,72.11c-3.98,2.19-8.59,2.86-13,1.9-5-1.09-8.31-4.91-7.68-10.06l1.54-9.13c.6-3.53,2.27-6.53,5.16-8.71,3.11-2.34,6.94-3.47,10.89-3.45,2.34,0,4.49.43,6.56,1.47,4.08,2.06,5.63,5.72,4.79,10.19l-1.63,8.67c-.73,3.92-3.02,7.14-6.63,9.12Z"/>
  <path class="st0" d="M172.05,56.35c1.22-.7,1.96-1.95,1.88-3.3-.05-.79-.57-1.42-1.34-1.65-1.63-.49-3.69.35-4.03,2.07l-.66,3.43c1.44.36,2.85.2,4.15-.55h0ZM169.87,66.26c2.07.04,3.93-.57,5.58-1.82l5.3,4.89c-4.68,4.27-11.18,6.01-17.36,4.69-4.83-1.1-8.52-5.21-7.65-10.08l1.6-8.89c.58-3.22,1.99-6.04,4.47-8.23,1.94-1.72,4.19-2.91,6.74-3.63,4.62-1.29,10.84-.82,13.92,3.09,1.55,1.97,1.88,4.44,1.52,6.85-.44,2.91-1.89,5.37-4.27,7.13-3.58,2.65-8.64,3.52-13.1,2.65-.44,1.05.03,2.17,1.05,2.76.65.33,1.36.48,2.19.59h0Z"/>
  <polygon class="st1" points="122.44 32.11 122.58 28.25 119.39 35.2 114.4 35.19 111.3 28.19 111.43 32.58 111.41 39.18 104.36 39.17 104.37 14.14 111.98 14.12 116.96 25.16 122.15 14.13 129.71 14.14 129.72 39.13 122.41 39.15 122.44 32.11"/>
  <path class="st1" d="M145.41,30.78v-8.48c.01-1.62-3.22-2.73-5.9-1.56-.41.18-1.18.83-1.18,1.34l-.06,8.06c0,.91.26,1.66,1.15,2.1,2.72,1.31,5.98.06,5.98-1.45h0ZM147.81,38.04c-4.39,2.02-10.62,1.75-14.28-1.57-1.6-1.45-2.55-3.39-2.55-5.56l-.03-8.36c0-2.96,1.4-5.52,4-7.02,4.48-2.59,10.88-2.47,14.86.76,1.62,1.31,2.84,3.15,2.85,5.28l.02,9.6c0,3.09-2.09,5.59-4.87,6.88Z"/>
  <path class="st1" d="M167.82,30.78v-8.6c-.01-1.32-3.21-2.8-6.13-1.34-.74.37-1.05,1.05-1.05,1.84v8.11c0,.65.68,1.25,1.24,1.5,2.7,1.21,5.94.06,5.94-1.5h0ZM172.36,36.67c-4.75,4.01-14.54,3.54-17.87-1.97-.63-1.04-1.04-2.33-1.04-3.55v-9.27c.01-2.21,1.07-4.13,2.78-5.54,5.38-4.42,15.75-3.16,18.34,3.02.28.68.51,1.55.52,2.3l.04,9.25c.01,2.28-1.03,4.3-2.76,5.76Z"/>
  <polygon class="st1" points="174.24 16.29 173.47 14.14 181.2 14.13 185.16 25.88 186.02 29.69 187.66 23.71 191.15 14.12 199.84 14.14 193.75 29.21 189.68 39.14 182.47 39.14 179.67 31.57 176.3 22.17 174.24 16.29"/>
  <path class="st0" d="M237.98,62.68l2.81-.98-1.98-9.77-1.17-5.42c-7.44,3.37-14.93,5.76-22.9,7.09-.1-.22-.11-.51-.07-.82,4.42-1.69,8.68-3.56,12.92-5.73,4.75-2.43,9.22-5.18,13.3-8.55l1.74,8.63,2.85,14.28.53,2.66c-9.58,3.23-19.58,5.48-29.67,6.01-2.35.02-4.59.3-7.02-.18,9.82-1.6,19.27-3.95,28.66-7.22h0Z"/>
  <path class="st0" d="M214.4,72.48c-1.76-.22-3.29-.43-4.97-.97l6.6-.14c6.88-.15,13.6-1.15,20.31-2.67l7.68-2.17,1.02,5.05c-6.17.97-12.22,1.55-18.42,1.6-4.13-.03-8.07-.19-12.22-.71h0Z"/>
  <path class="st0" d="M237.29,78.26c-8.9.15-18.77-1.65-27.05-4.98l9.47,1.08,9.41.34c4.92-.17,9.72-.57,14.55-1.65l.82,4.61c-2.39.45-4.73.56-7.2.6h0Z"/>
</svg>
